# Blender 5.2.1 LTS
# www.blender.org
mtllib multiTextureBlock.mtl
o Cube.001
v -1.000000 1.000000 1.000000
v -1.000000 1.000000 -1.000000
v -1.000000 -1.000000 1.000000
v -1.000000 -1.000000 -1.000000
v 1.000000 1.000000 1.000000
v 1.000000 1.000000 -1.000000
v 1.000000 -1.000000 1.000000
v 1.000000 -1.000000 -1.000000
vn -1.0000 -0.0000 -0.0000
vn -0.0000 -1.0000 -0.0000
vn 1.0000 -0.0000 -0.0000
vn -0.0000 1.0000 -0.0000
vn -0.0000 -0.0000 1.0000
vn -0.0000 -0.0000 -1.0000
vt 0.500000 0.000000
vt 0.500000 0.333333
vt -0.000000 0.333333
vt 0.000000 0.000000
vt 0.500000 0.666667
vt 0.000000 0.666667
vt 1.000000 -0.000000
vt 1.000000 0.333333
vt 1.000000 0.666667
vt 0.500000 1.000000
vt 0.000000 1.000000
vt 1.000000 1.000000
s 1
usemtl Material.001
f 1/1/1 2/2/1 4/3/1 3/4/1
f 3/2/2 4/5/2 8/6/2 7/3/2
f 7/7/3 8/8/3 6/2/3 5/1/3
f 5/8/4 6/9/4 2/5/4 1/2/4
f 3/5/5 7/10/5 5/11/5 1/6/5
f 8/9/6 4/12/6 2/10/6 6/5/6
